<?xml version="1.0" encoding="UTF-8"?>
<svg width="16px" height="16px" viewBox="0 0 16 16" version="1.1" xmlns="http://www.w3.org/2000/svg" xmlns:xlink="http://www.w3.org/1999/xlink">
    <!-- Generator: Sketch 55.2 (78181) - https://sketchapp.com -->
    <title>icon/arrow</title>
    <desc>Created with Sketch.</desc>
    <g id="icon/arrow" stroke="none" stroke-width="1" fill="none" fill-rule="evenodd">
        <path d="M15.6933484,5.21307779 L8.82976325,12.2299887 C8.58624577,12.4825254 8.3156708,12.6087937 8,12.6087937 C7.6843292,12.5997745 7.3957159,12.4825254 7.16121759,12.2299887 L0.306651635,5.21307779 C0.108229989,5.01465614 -1.46315066e-14,4.7621195 -1.46315066e-14,4.46448703 C-1.46315066e-14,3.8692221 0.468996618,3.39120631 1.06426156,3.39120631 C1.35287486,3.39120631 1.632469,3.51747463 1.83990981,3.72491545 L7.99098083,10.0383315 L14.1600902,3.72491545 C14.367531,3.51747463 14.638106,3.39120631 14.9357384,3.39120631 C15.5310034,3.39120631 16,3.8692221 16,4.46448703 C16,4.7621195 15.89177,5.01465614 15.6933484,5.21307779 Z" id="arrow" fill="#000000" fill-rule="nonzero"></path>
    </g>
</svg>