<?xml version="1.0" encoding="UTF-8"?>
<svg width="16px" height="16px" viewBox="0 0 16 16" version="1.1" xmlns="http://www.w3.org/2000/svg" xmlns:xlink="http://www.w3.org/1999/xlink">
    <!-- Generator: Sketch 55.2 (78181) - https://sketchapp.com -->
    <title>icon/关闭</title>
    <desc>Created with Sketch.</desc>
    <g id="icon/关闭" stroke="none" stroke-width="1" fill="none" fill-rule="evenodd">
        <path d="M8,16 C3.62352941,16 0,12.3764706 0,8 C0,3.63137255 3.61568627,0 7.99215686,0 C12.3607843,0 16,3.63137255 16,8 C16,12.3764706 12.3686275,16 8,16 Z M8,14.6666667 C11.6941176,14.6666667 14.6745098,11.7019608 14.6666821,8 C14.6588235,4.30588235 11.6862745,1.33333333 7.99215686,1.33333333 C4.29019608,1.33333333 1.34117647,4.30588235 1.34117647,8 C1.34117647,11.7019608 4.29803922,14.6666667 8,14.6666667 Z M5.31764706,11.3254902 C4.96470588,11.3254902 4.69019608,11.0352941 4.69019608,10.6901961 C4.69019608,10.5176471 4.75294118,10.3607843 4.87843137,10.2509804 L7.10588235,8.01568627 L4.87843137,5.78039216 C4.75294118,5.6627451 4.69019608,5.51372549 4.69019608,5.34117647 C4.69019608,4.98823529 4.96470588,4.72156863 5.31764706,4.72156863 C5.49019608,4.72156863 5.63137255,4.77647059 5.74901961,4.90196078 L7.99215686,7.1372549 L10.2431373,4.89411765 C10.3764706,4.76078431 10.5176471,4.70588235 10.6823529,4.70588235 C11.027451,4.70588235 11.3098039,4.98039216 11.3098039,5.33333333 C11.3098039,5.50588235 11.2470588,5.63921569 11.1215686,5.77254902 L8.88627451,8.01568627 L11.1137255,10.2431373 C11.2313725,10.3607843 11.3019608,10.5098039 11.3019608,10.6901961 C11.3019608,11.0352941 11.0196078,11.3254902 10.6745098,11.3254902 C10.4941176,11.3254902 10.3372549,11.2470588 10.2196078,11.1294118 L7.99215686,8.89411765 L5.76470588,11.1294118 C5.64705882,11.254902 5.49019608,11.3254902 5.31764706,11.3254902 Z" id="error" fill="#000000" fill-rule="nonzero"></path>
    </g>
</svg>