<?xml version="1.0" encoding="UTF-8"?>
<svg width="16px" height="16px" viewBox="0 0 16 16" version="1.1" xmlns="http://www.w3.org/2000/svg" xmlns:xlink="http://www.w3.org/1999/xlink">
    <!-- Generator: Sketch 55.2 (78181) - https://sketchapp.com -->
    <title>icon/复制</title>
    <desc>Created with Sketch.</desc>
    <g id="icon/复制" stroke="none" stroke-width="1" fill="none" fill-rule="evenodd">
        <path d="M3.25675676,13.0312798 C1.94198509,13.0312798 1.25,12.3457067 1.25,11.0500365 L1.25,1.98124333 C1.25,0.685573089 1.94198509,0 3.25675676,0 L9.66076421,0 C10.9692451,0 11.6612302,0.685573089 11.6612302,1.98124333 L11.6612302,2.92469254 L12.749534,2.92469254 C14.0580149,2.92469254 14.75,3.61026563 14.75,4.90593587 L14.75,14.0187567 C14.75,15.3144269 14.0580149,16 12.749534,16 L6.34552656,16 C5.03075489,16 4.34506058,15.3144269 4.34506058,14.0187567 L4.34506058,13.0312798 L3.25675676,13.0312798 Z M3.35740913,11.7418993 L4.34506058,11.7418993 L4.34506058,4.90593587 C4.34506058,3.61026563 5.03075489,2.92469254 6.34552656,2.92469254 L10.3716216,2.92469254 L10.3716216,2.11332622 C10.3716216,1.55354636 10.082246,1.28309092 9.55382106,1.28309092 L3.35740913,1.28309092 C2.82898416,1.28309092 2.53960857,1.55354636 2.53960857,2.11332622 L2.53960857,10.9179536 C2.53960857,11.4714438 2.82898416,11.7418993 3.35740913,11.7418993 Z M6.44617894,14.7169091 L12.6488816,14.7169091 C13.1710158,14.7169091 13.4603914,14.4464536 13.4603914,13.8929634 L13.4603914,5.03801876 C13.4603914,4.48452856 13.1710158,4.21407312 12.6488816,4.21407312 L6.44617894,4.21407312 C5.91775396,4.21407312 5.63466915,4.48452856 5.63466915,5.03801876 L5.63466915,13.8866738 C5.63466915,14.440164 5.91775396,14.7169091 6.44617894,14.7169091 Z" fill="#A2BEDC" fill-rule="nonzero"></path>
    </g>
</svg>