<svg xmlns="http://www.w3.org/2000/svg" xmlns:xlink="http://www.w3.org/1999/xlink" viewBox="0 0 473.17 216.69"><defs><style>.cls-1{fill:#727473;}.cls-2{fill:url(#未命名的渐变_18);}</style><linearGradient id="未命名的渐变_18" x1="-10.36" y1="1.52" x2="134.57" y2="146.45" gradientUnits="userSpaceOnUse"><stop offset="0" stop-color="#00ebf6"/><stop offset="1" stop-color="#0092ff"/></linearGradient></defs><title>资源 1</title><g id="图层_2" data-name="图层 2"><g id="图层_1-2" data-name="图层 1"><path class="cls-1" d="M1,176H8.63C18,176,23,181.39,23,191s-5,15.29-14.17,15.29H1Zm7.29,27.22c7.17,0,10.7-4.47,10.7-12.14s-3.53-12-10.7-12H4.85v24.12Z"/><path class="cls-1" d="M27,195.1c0-7.29,4.93-11.85,10.15-11.85,5.72,0,9,4.14,9,10.57a15,15,0,0,1-.17,2.15H30.76c.25,4.81,3.19,7.88,7.46,7.88a9.77,9.77,0,0,0,5.64-1.78l1.37,2.48a13.37,13.37,0,0,1-7.46,2.32C31.8,206.87,27,202.52,27,195.1Zm15.79-1.82c0-4.56-2.07-7-5.59-7-3.19,0-6,2.56-6.47,7Z"/><path class="cls-1" d="M49.73,195.1c0-7.5,5.1-11.85,10.86-11.85a9.63,9.63,0,0,1,6.59,2.65l-2,2.53a6.54,6.54,0,0,0-4.52-2c-4.06,0-7,3.52-7,8.7s2.81,8.62,7,8.62a7.94,7.94,0,0,0,5.3-2.23L67.55,204a10.7,10.7,0,0,1-7.25,2.86C54.33,206.87,49.73,202.56,49.73,195.1Z"/><path class="cls-1" d="M69.56,195.1c0-7.29,4.93-11.85,10.15-11.85,5.72,0,9,4.14,9,10.57A15.17,15.17,0,0,1,88.5,196H73.33c.25,4.81,3.19,7.88,7.46,7.88a9.77,9.77,0,0,0,5.64-1.78l1.36,2.48a13.35,13.35,0,0,1-7.46,2.32C74.37,206.87,69.56,202.52,69.56,195.1Zm15.79-1.82c0-4.56-2.07-7-5.6-7-3.19,0-6,2.56-6.46,7Z"/><path class="cls-1" d="M93.7,183.83h3.1l.34,3.23h.12c2.16-2.11,4.48-3.81,7.54-3.81,4.73,0,6.88,3.07,6.88,8.83v14.25h-3.77V192.58c0-4.23-1.28-6-4.27-6-2.32,0-3.89,1.16-6.17,3.44v16.32H93.7Z"/><path class="cls-1" d="M118.7,199.37V186.9h-3.36V184l3.52-.21.46-6.3h3.15v6.3h6.09v3.07h-6.09v12.55c0,2.78.87,4.36,3.48,4.36a8,8,0,0,0,2.57-.58l.75,2.81a14,14,0,0,1-4.15.83C120.31,206.87,118.7,203.89,118.7,199.37Z"/><path class="cls-1" d="M133.13,183.83h3.11l.34,4.1h.12c1.57-2.86,3.85-4.68,6.38-4.68a4.85,4.85,0,0,1,2.41.5l-.71,3.31a5.3,5.3,0,0,0-2.2-.37c-1.86,0-4.18,1.33-5.67,5.18v14.46h-3.78Z"/><path class="cls-1" d="M147.67,200.49c0-4.89,4.27-7.33,13.84-8.41,0-2.9-.95-5.68-4.64-5.68a12.39,12.39,0,0,0-6.75,2.4l-1.49-2.61a17,17,0,0,1,8.86-2.94c5.47,0,7.8,3.69,7.8,9.24v13.84h-3.11l-.33-2.69h-.13c-2.15,1.78-4.68,3.23-7.46,3.23C150.49,206.87,147.67,204.55,147.67,200.49Zm13.84.37v-6.3c-7.58.92-10.15,2.78-10.15,5.68,0,2.57,1.74,3.61,4,3.61S159.32,202.81,161.51,200.86Z"/><path class="cls-1" d="M171.57,201.86V173.35h3.77v28.76c0,1.16.49,1.61,1.08,1.61a3.38,3.38,0,0,0,.78-.08l.54,2.9a5.91,5.91,0,0,1-2.2.33C172.73,206.87,171.57,205.05,171.57,201.86Z"/><path class="cls-1" d="M181.63,176.74a2.62,2.62,0,0,1,5.22,0,2.62,2.62,0,0,1-5.22,0Zm.71,7.09h3.77v22.5h-3.77Z"/><path class="cls-1" d="M190.37,204.3l11.85-17.4H191.66v-3.07H207v2l-11.85,17.41H207.4v3.06h-17Z"/><path class="cls-1" d="M209.61,195.1c0-7.29,4.93-11.85,10.15-11.85,5.72,0,9,4.14,9,10.57a15.17,15.17,0,0,1-.16,2.15H213.38c.25,4.81,3.19,7.88,7.46,7.88a9.77,9.77,0,0,0,5.64-1.78l1.36,2.48a13.35,13.35,0,0,1-7.46,2.32C214.42,206.87,209.61,202.52,209.61,195.1Zm15.79-1.82c0-4.56-2.07-7-5.6-7-3.19,0-6,2.56-6.46,7Z"/><path class="cls-1" d="M232.38,195.1c0-7.29,4.6-11.85,9.74-11.85,2.65,0,4.35,1,6.34,2.65l-.2-3.89v-8.66H252v33H249l-.37-2.65h-.09a10,10,0,0,1-6.83,3.19C236,206.87,232.38,202.6,232.38,195.1Zm15.88,5.52V188.8a7.91,7.91,0,0,0-5.47-2.36c-3.65,0-6.51,3.48-6.51,8.62,0,5.43,2.24,8.66,6.22,8.66C244.57,203.72,246.39,202.69,248.26,200.62Z"/><path class="cls-1" d="M265.57,200.49c0-4.89,4.26-7.33,13.84-8.41,0-2.9-1-5.68-4.64-5.68a12.42,12.42,0,0,0-6.76,2.4l-1.49-2.61a17,17,0,0,1,8.87-2.94c5.47,0,7.79,3.69,7.79,9.24v13.84h-3.11l-.33-2.69h-.12c-2.16,1.78-4.69,3.23-7.46,3.23C268.38,206.87,265.57,204.55,265.57,200.49Zm13.84.37v-6.3c-7.59.92-10.16,2.78-10.16,5.68,0,2.57,1.75,3.61,4,3.61S277.21,202.81,279.41,200.86Z"/><path class="cls-1" d="M288.21,195.1c0-7.29,4.6-11.85,9.74-11.85,2.65,0,4.35,1,6.34,2.65l-.2-3.89v-8.66h3.77v33h-3.07l-.37-2.65h-.09a10,10,0,0,1-6.83,3.19C291.86,206.87,288.21,202.6,288.21,195.1Zm15.88,5.52V188.8a7.91,7.91,0,0,0-5.47-2.36c-3.65,0-6.51,3.48-6.51,8.62,0,5.43,2.24,8.66,6.22,8.66C300.4,203.72,302.22,202.69,304.09,200.62Z"/><path class="cls-1" d="M311.75,183.83h3.93l4.23,12.81c.71,2.19,1.41,4.51,2.11,6.63h.17c.66-2.12,1.41-4.44,2.07-6.63l4.27-12.81h3.73l-8,22.5h-4.39Z"/><path class="cls-1" d="M333.84,195.1c0-7.29,4.93-11.85,10.16-11.85,5.72,0,8.95,4.14,8.95,10.57a13.66,13.66,0,0,1-.17,2.15H337.61c.25,4.81,3.2,7.88,7.46,7.88a9.77,9.77,0,0,0,5.64-1.78l1.37,2.48a13.37,13.37,0,0,1-7.46,2.32C338.65,206.87,333.84,202.52,333.84,195.1Zm15.79-1.82c0-4.56-2.07-7-5.59-7-3.19,0-6,2.56-6.47,7Z"/><path class="cls-1" d="M358,183.83h3.11l.33,4.1h.13c1.57-2.86,3.85-4.68,6.38-4.68a4.81,4.81,0,0,1,2.4.5l-.7,3.31a5.36,5.36,0,0,0-2.2-.37c-1.86,0-4.18,1.33-5.68,5.18v14.46H358Z"/><path class="cls-1" d="M376,199.37V186.9H372.6V184l3.52-.21.46-6.3h3.15v6.3h6.09v3.07h-6.09v12.55c0,2.78.87,4.36,3.48,4.36a8,8,0,0,0,2.57-.58l.75,2.81a14,14,0,0,1-4.15.83C377.57,206.87,376,203.89,376,199.37Z"/><path class="cls-1" d="M389.69,176.74a2.62,2.62,0,0,1,5.22,0,2.62,2.62,0,0,1-5.22,0Zm.71,7.09h3.77v22.5H390.4Z"/><path class="cls-1" d="M398.42,203.76l1.86-2.48a10.24,10.24,0,0,0,6.68,2.65c3,0,4.43-1.57,4.43-3.52,0-2.28-2.65-3.32-5.14-4.27-3.15-1.16-6.71-2.69-6.71-6.51,0-3.56,2.86-6.38,7.75-6.38a11.65,11.65,0,0,1,7,2.53l-1.82,2.44a8.48,8.48,0,0,0-5.18-2c-2.82,0-4.11,1.5-4.11,3.24,0,2.15,2.45,2.94,5,3.89,3.27,1.25,6.88,2.57,6.88,6.84,0,3.65-2.91,6.67-8.21,6.67A13.51,13.51,0,0,1,398.42,203.76Z"/><path class="cls-1" d="M418.81,176.74a2.62,2.62,0,0,1,5.23,0,2.62,2.62,0,0,1-5.23,0Zm.71,7.09h3.77v22.5h-3.77Z"/><path class="cls-1" d="M429.85,183.83H433l.33,3.23h.12c2.16-2.11,4.48-3.81,7.55-3.81,4.72,0,6.88,3.07,6.88,8.83v14.25h-3.78V192.58c0-4.23-1.28-6-4.26-6-2.32,0-3.9,1.16-6.18,3.44v16.32h-3.77Z"/><path class="cls-1" d="M452.49,210.64c0-1.9,1.24-3.73,3.35-5.09v-.17a4.07,4.07,0,0,1-2.07-3.69,5.49,5.49,0,0,1,2.53-4.18v-.17a7.91,7.91,0,0,1-2.94-6.05c0-4.93,3.89-8,8.45-8a9.27,9.27,0,0,1,3.15.58h7.83v2.9H468.2a6.47,6.47,0,0,1,1.82,4.64c0,4.81-3.65,7.84-8.21,7.84a7.74,7.74,0,0,1-3.35-.79,3.34,3.34,0,0,0-1.45,2.69c0,1.45.91,2.45,3.93,2.45h4.39c5.23,0,7.84,1.65,7.84,5.34,0,4.19-4.39,7.79-11.36,7.79C456.3,216.69,452.49,214.54,452.49,210.64Zm17-1.16c0-2.07-1.61-2.77-4.6-2.77H461a12.72,12.72,0,0,1-2.91-.38,4.77,4.77,0,0,0-2.32,3.82c0,2.4,2.45,4,6.55,4C466.66,214.13,469.52,211.85,469.52,209.48Zm-2.94-18.19c0-3.27-2.12-5.26-4.77-5.26S457,188,457,191.29s2.19,5.35,4.8,5.35S466.58,194.56,466.58,191.29Z"/><path class="cls-2" d="M0,77.9H0a19,19,0,0,1,19-19v38A19,19,0,0,1,0,77.9Zm78.22,0h0a19,19,0,0,0-19-19H43.45v38H59.22A19,19,0,0,0,78.22,77.9ZM66.51,0H3V34H66.51c22,0,41.9,19.23,41.9,43.9s-19.9,43.9-41.9,43.9H31.23v34H66.51c43,0,79.9-32.21,79.9-77.9h0C146.41,32.21,109.53,0,66.51,0Z"/><path class="cls-1" d="M247.05,40.26c-6.14-5.59-15.13-8.57-25.7-8.57H186.51v83.59h10.85V40.52H219.5c7.85,0,14.7,1.81,20,6.75,7,6.62,6.71,18.3,6.71,29.59s.28,25-6.71,31.67c-5.29,4.94-12.14,6.75-20,6.75H197.36v8.83h24c10.57,0,19.56-3,25.7-8.57,10.57-9.6,10-25.83,10-38.68S257.62,49.86,247.05,40.26Z"/><path class="cls-1" d="M320.3,31.69l-33.83,83.59H297.9l4.7-12.07H347l8.13,20.9h11.57L329.44,31.69Zm-14.42,63L325,45.84l18.84,48.81Z"/><path class="cls-1" d="M460.17,40.26C454,34.67,445,31.69,434.46,31.69H399.62v83.59h10.86V40.52h22.13c7.85,0,14.71,1.81,20,6.75,7,6.62,6.71,18.3,6.71,29.59s.29,25-6.71,31.67c-5.28,4.94-12.14,6.75-20,6.75H410.48v8.83h24c10.57,0,19.57-3,25.71-8.57,10.56-9.6,10-25.83,10-38.68S470.73,49.86,460.17,40.26Z"/></g></g></svg>