<svg xmlns="http://www.w3.org/2000/svg" xmlns:xlink="http://www.w3.org/1999/xlink" viewBox="0 0 470.2 155.8"><defs><style>.cls-1{fill:url(#未命名的渐变);}.cls-2{fill:#727473;}</style><linearGradient id="未命名的渐变" x1="-10.36" y1="216.48" x2="134.57" y2="71.55" gradientTransform="matrix(1, 0, 0, -1, 0, 218)" gradientUnits="userSpaceOnUse"><stop offset="0" stop-color="#00ebf6"/><stop offset="1" stop-color="#0092ff"/></linearGradient></defs><title>图层 2</title><g id="图层_2" data-name="图层 2"><g id="图层_1-2" data-name="图层 1"><g id="图层_2-2" data-name="图层 2"><g id="图层_1-2-2" data-name="图层 1-2"><path class="cls-1" d="M0,77.9H0a19,19,0,0,1,19-19v38A19,19,0,0,1,0,77.9Zm78.22,0h0a19,19,0,0,0-19-19H43.45v38H59.22A19,19,0,0,0,78.22,77.9ZM66.51,0H3V34H66.51c22,0,41.9,19.23,41.9,43.9s-19.9,43.9-41.9,43.9H31.23v34H66.51c43,0,79.9-32.21,79.9-77.9h0C146.41,32.21,109.53,0,66.51,0Z"/><path class="cls-2" d="M247.05,40.26c-6.14-5.59-15.13-8.57-25.7-8.57H186.51v83.59h10.85V40.52H219.5c7.85,0,14.7,1.81,20,6.75,7,6.62,6.71,18.3,6.71,29.59s.28,25-6.71,31.67c-5.29,4.94-12.14,6.75-20,6.75H197.36v8.83h24c10.57,0,19.56-3,25.7-8.57,10.57-9.6,10-25.83,10-38.68S257.62,49.86,247.05,40.26Z"/><path class="cls-2" d="M320.3,31.69l-33.83,83.59H297.9l4.7-12.07H347l8.13,20.9H366.7L329.44,31.69Zm-14.42,63L325,45.84l18.84,48.81Z"/><path class="cls-2" d="M460.17,40.26C454,34.67,445,31.69,434.46,31.69H399.62v83.59h10.86V40.52h22.13c7.85,0,14.71,1.81,20,6.75,7,6.62,6.71,18.3,6.71,29.59s.29,25-6.71,31.67c-5.28,4.94-12.14,6.75-20,6.75H410.48v8.83h24c10.57,0,19.57-3,25.71-8.57,10.56-9.6,10-25.83,10-38.68S470.73,49.86,460.17,40.26Z"/></g></g></g></g></svg>