<?xml version="1.0" encoding="UTF-8"?>
<svg width="16px" height="16px" viewBox="0 0 16 16" version="1.1" xmlns="http://www.w3.org/2000/svg" xmlns:xlink="http://www.w3.org/1999/xlink">
    <!-- Generator: Sketch 55.2 (78181) - https://sketchapp.com -->
    <title>icon/删除-白</title>
    <desc>Created with Sketch.</desc>
    <g id="icon/删除-白" stroke="none" stroke-width="1" fill="none" fill-rule="evenodd">
        <path d="M11.740513,14.7487252 L4.25948702,14.7487252 C3.68709535,14.7487252 3.22119516,14.282825 3.22119516,13.7104333 L3.22119516,3.31454709 L12.7788048,3.31454709 L12.7788048,13.7104333 C12.7788048,14.282825 12.3129046,14.7487252 11.740513,14.7487252 Z M5.29777888,1.45094632 C5.29777888,1.33114341 5.39095892,1.23796337 5.51076183,1.23796337 L10.5025496,1.23796337 C10.6223525,1.23796337 10.7155326,1.33114341 10.7155326,1.45094632 L10.7155326,2.07658372 L5.29777888,2.07658372 L5.29777888,1.45094632 Z M14.8287657,2.07658372 L11.9534959,2.07658372 L11.9534959,1.45094632 C11.9534959,0.652260271 11.3012357,-1.29896094e-14 10.5025496,-1.29896094e-14 L5.51076183,-1.29896094e-14 C4.71207578,-1.29896094e-14 4.05981551,0.652260271 4.05981551,1.45094632 L4.05981551,2.07658372 L1.17123431,2.07658372 C0.825137025,2.07658372 0.545596909,2.35612383 0.545596909,2.70222112 C0.545596909,3.04831841 0.825137025,3.32785852 1.17123431,3.32785852 L1.96992036,3.32785852 L1.96992036,13.7104333 C1.96992036,14.9750196 2.99490078,16 4.25948702,16 L11.740513,16 C13.0050992,16 14.0300796,14.9750196 14.0300796,13.7104333 L14.0300796,3.31454709 L14.8287657,3.31454709 C15.174863,3.31454709 15.4544031,3.03500697 15.4544031,2.68890969 C15.4544031,2.3428124 15.174863,2.07658372 14.8287657,2.07658372 Z M8.63229312,12.2461756 L8.63229312,5.59045854 C8.63229312,5.24436125 8.352753,4.96482114 8.00665572,4.96482114 C7.66055843,4.96482114 7.38101831,5.24436125 7.38101831,5.59045854 L7.38101831,12.2461756 C7.38101831,12.5922729 7.66055843,12.871813 8.00665572,12.871813 C8.352753,12.871813 8.63229312,12.5922729 8.63229312,12.2461756 Z M6.11124531,12.2461756 L6.11124531,5.59045854 C6.11124531,5.24436125 5.83170519,4.96482114 5.4856079,4.96482114 C5.13951062,4.96482114 4.8599705,5.24436125 4.8599705,5.59045854 L4.8599705,12.2461756 C4.87328194,12.5922729 5.15282205,12.871813 5.4856079,12.871813 C5.83170519,12.871813 6.11124531,12.5922729 6.11124531,12.2461756 Z M11.1533409,12.2461756 L11.1533409,5.59045854 C11.1533409,5.24436125 10.8738008,4.96482114 10.5277035,4.96482114 C10.1816062,4.96482114 9.90206613,5.24436125 9.90206613,5.59045854 L9.90206613,12.2461756 C9.90206613,12.5922729 10.1816062,12.871813 10.5277035,12.871813 C10.8738008,12.871813 11.1533409,12.5922729 11.1533409,12.2461756 Z" id="形状" fill="#FFFFFF" fill-rule="nonzero"></path>
    </g>
</svg>