<?xml version="1.0" encoding="UTF-8"?>
<svg width="16px" height="16px" viewBox="0 0 16 16" version="1.1" xmlns="http://www.w3.org/2000/svg" xmlns:xlink="http://www.w3.org/1999/xlink">
    <!-- Generator: Sketch 55.2 (78181) - https://sketchapp.com -->
    <title>icon/export</title>
    <desc>Created with Sketch.</desc>
    <g id="icon/export" stroke="none" stroke-width="1" fill="none" fill-rule="evenodd">
        <path d="M8,13.610183 C7.6690533,13.610183 7.433572,13.3747017 7.433572,13.043755 L7.433572,6.61575179 L7.47812251,5.24741448 L5.56245028,7.34765314 L4.13683373,8.75417661 C4.03500398,8.85600636 3.88225935,8.9132856 3.72951472,8.9132856 C3.41129674,8.9132856 3.17581543,8.67143994 3.17581543,8.35322196 C3.17581543,8.20047733 3.23945903,8.06046142 3.36674622,7.92680986 L7.57358791,3.71360382 C7.66268894,3.61813842 7.7645187,3.56085919 7.87271281,3.52903739 L3.70405728,3.52903739 C3.37311058,3.52903739 3.150358,3.29355609 3.150358,2.96260939 C3.150358,2.63166269 3.37311058,2.38981702 3.70405728,2.38981702 L12.283214,2.38981702 C12.6205251,2.38981702 12.849642,2.63166269 12.849642,2.96260939 C12.849642,3.29355609 12.6205251,3.52903739 12.283214,3.52903739 L8.12728719,3.52903739 C8.2354813,3.56085919 8.33731106,3.61813842 8.42641209,3.71360382 L12.6396181,7.92680986 C12.7669053,8.06046142 12.8241846,8.20047733 12.8241846,8.35322196 C12.8241846,8.67143994 12.5950676,8.9132856 12.2704853,8.9132856 C12.1177407,8.9132856 11.9713604,8.85600636 11.8631663,8.75417661 L10.4375497,7.34765314 L8.52187749,5.25377884 L8.57279236,6.61575179 L8.57279236,13.043755 C8.57279236,13.3747017 8.3309467,13.610183 8,13.610183 Z" id="export" fill="#000000" fill-rule="nonzero"></path>
    </g>
</svg>