<?xml version="1.0" encoding="UTF-8"?>
<svg width="16px" height="16px" viewBox="0 0 16 16" version="1.1" xmlns="http://www.w3.org/2000/svg" xmlns:xlink="http://www.w3.org/1999/xlink">
    <!-- Generator: Sketch 55.2 (78181) - https://sketchapp.com -->
    <title>icon/收入</title>
    <desc>Created with Sketch.</desc>
    <g id="icon/收入" stroke="none" stroke-width="1" fill="none" fill-rule="evenodd">
        <path d="M0,8 C0,12.418278 3.581722,16 8,16 C12.418278,16 16,12.418278 16,8 C16,3.581722 12.418278,0 8,0 C3.581722,0 0,3.581722 0,8 Z" id="路径" fill="#1AAD19" fill-rule="nonzero"></path>
        <path d="M10.0134835,8.35463243 L11.0651057,8.35463243 C11.2076971,8.3549331 11.3345335,8.44931176 11.3813662,8.58996107 C11.4281988,8.73061038 11.384798,8.88680841 11.2731483,8.9794333 L8.41759492,11.3479297 C8.17317555,11.5506906 7.8271592,11.5506906 7.58273982,11.3479297 L4.72685087,8.9794333 C4.61510532,8.88672822 4.57173651,8.73035221 4.6187443,8.58963075 C4.66575208,8.44890929 4.79285002,8.35463566 4.93556464,8.35463243 L5.98685122,8.35463243 L5.98685122,5.20084226 C5.98685122,4.81377777 6.28731534,4.50000041 6.6579566,4.50000041 L9.34237814,4.50000041 C9.7130194,4.50000041 10.0134835,4.81377777 10.0134835,5.20084226 L10.0134835,8.35463243 Z" id="路径" fill="#FFFFFF" fill-rule="nonzero"></path>
    </g>
</svg>