<?xml version="1.0" encoding="UTF-8"?>
<svg width="31px" height="31px" viewBox="0 0 31 31" version="1.1" xmlns="http://www.w3.org/2000/svg" xmlns:xlink="http://www.w3.org/1999/xlink">
    <!-- Generator: Sketch 55.2 (78181) - https://sketchapp.com -->
    <title>icon/收入</title>
    <desc>Created with Sketch.</desc>
    <g id="1.1" stroke="none" stroke-width="1" fill="none" fill-rule="evenodd">
        <g id="交易记录-内容超长是出现滚动条" transform="translate(-20.000000, -193.000000)" fill-rule="nonzero">
            <g id="main" transform="translate(20.000000, 69.000000)">
                <g id="记录" transform="translate(0.000000, 123.000000)">
                    <g id="icon/合约" transform="translate(0.000000, 1.000000)">
                        <path d="M0,15.5 C0,24.0604136 6.93958638,31 15.5,31 C24.0604136,31 31,24.0604136 31,15.5 C31,6.93958638 24.0604136,0 15.5,0 C6.93958638,0 0,6.93958638 0,15.5 Z" id="路径" fill="#5319AD"></path>
                        <path d="M20.5687108,16.5688697 C18.8853081,16.5688697 17.1525164,15.5131411 17.1463406,14.3874492 C17.1463406,14.3648105 16.9693594,13.4737117 17.6711255,12.642306 C18.2823368,12.066068 18.6630494,11.2470138 18.6630494,10.3415162 C18.6630494,8.59430887 17.2471827,7.17844216 15.4999753,7.17844216 C13.752768,7.17844216 12.3369182,8.59430887 12.3369182,10.3415162 C12.3369182,11.1502832 12.6394444,11.8849753 13.1395094,12.4447334 L13.1353979,12.4447334 C13.1415736,12.4509091 13.1497967,12.4570848 13.1559724,12.4653248 C13.2012498,12.5147137 13.2485745,12.5641026 13.2959161,12.6093801 C13.9668036,13.3749338 13.8556743,14.3833207 13.8556743,14.3833207 C13.8556743,15.5090296 12.1167068,16.5688697 10.4333041,16.5688697 C9.75417669,16.5668054 9.19853009,16.9907482 9.19853009,17.5114216 L9.19853009,18.4498451 C9.19853009,18.6247621 9.38581548,18.7667531 9.61836136,18.7667531 L21.3836535,18.7667531 C21.6141521,18.7667531 21.8034848,18.6227148 21.8014435,18.4498451 L21.8014435,17.5114216 C21.805549,16.9928124 21.2499024,16.5688697 20.5687108,16.5688697 L20.5687108,16.5688697 Z M18.6609852,22.4912245 L10.2501471,22.4912245 C9.66979759,22.4912245 9.19853009,22.0178927 9.19853009,21.4396074 C9.19853009,20.8592579 9.6718618,20.3880073 10.2501471,20.3880073 L18.6589379,20.3880073 C19.2392874,20.3880073 19.7105648,20.8613221 19.7105648,21.4396074 C19.7146665,22.0178927 19.2413347,22.4912245 18.6610021,22.4912245 L18.6609852,22.4912245 Z M20.7518638,22.4912245 L12.3410257,22.4912245 C11.7606762,22.4912245 11.2894087,22.0178927 11.2894087,21.4396074 C11.2894087,20.8592579 11.7627404,20.3880073 12.3410257,20.3880073 L20.7498166,20.3880073 C21.3301661,20.3880073 21.8014435,20.8613221 21.8014435,21.4396074 C21.8055451,22.0178927 21.3322134,22.4912245 20.7518808,22.4912245 L20.7518638,22.4912245 Z" id="形状" fill="#FFFFFF" transform="translate(15.500000, 14.834833) scale(-1, 1) translate(-15.500000, -14.834833) "></path>
                    </g>
                </g>
            </g>
        </g>
    </g>
</svg>