<?xml version="1.0" encoding="UTF-8"?>
<svg width="16px" height="16px" viewBox="0 0 16 16" version="1.1" xmlns="http://www.w3.org/2000/svg" xmlns:xlink="http://www.w3.org/1999/xlink">
    <!-- Generator: Sketch 55.2 (78181) - https://sketchapp.com -->
    <title>icon/newaccount</title>
    <desc>Created with Sketch.</desc>
    <g id="icon/newaccount" stroke="none" stroke-width="1" fill="none" fill-rule="evenodd">
        <path d="M14.1992342,5.14423708 L13.0721007,5.14423708 L13.0721007,2.85962673 L10.8178337,2.85962673 L10.8178337,1.71732157 L13.0721007,1.71732157 C13.5793108,1.71732157 14.1992342,2.34558941 14.1992342,2.85962673 L14.1992342,5.14423708 Z M14.1992342,6.85769483 L14.1992342,9.14230517 L13.0721007,9.14230517 L13.0721007,6.85769483 L14.1992342,6.85769483 L14.1992342,6.85769483 Z M1.80076576,6.85769483 L2.92789926,6.85769483 L2.92789926,9.14230517 L1.80076576,9.14230517 L1.80076576,6.85769483 L1.80076576,6.85769483 Z M1.80076576,5.14423708 L1.80076576,2.85962673 C1.80076576,2.34558941 2.42068918,1.71732157 2.92789926,1.71732157 L5.18216626,1.71732157 L5.18216626,2.85962673 L2.92789926,2.85962673 L2.92789926,5.14423708 L1.80076576,5.14423708 Z M10.8178337,14.2826784 L10.8178337,13.1403733 L13.0721007,13.1403733 L13.0721007,10.8557629 L14.1992342,10.8557629 L14.1992342,13.1403733 C14.1992342,13.6544106 13.6356675,14.2826784 13.0721007,14.2826784 L10.8178337,14.2826784 Z M9.12713349,14.2826784 L6.87286651,14.2826784 L6.87286651,13.1403733 L9.12713349,13.1403733 L9.12713349,14.2826784 Z M9.12713349,1.71732157 L9.12713349,2.85962673 L6.87286651,2.85962673 L6.87286651,1.71732157 L9.12713349,1.71732157 L9.12713349,1.71732157 Z M1.80076576,10.8557629 L2.92789926,10.8557629 L2.92789926,13.1403733 L5.18216626,13.1403733 L5.18216626,14.2826784 L2.92789926,14.2826784 C2.42068918,14.2826784 1.80076576,13.6544106 1.80076576,13.1403733 L1.80076576,10.8557629 Z M10.8178337,7.42884741 L8.56356675,7.42884741 L8.56356675,5.14423708 C8.56356675,4.85866079 8.28178338,4.57308449 8,4.57308449 C7.71821662,4.57308449 7.43643325,4.85866078 7.43643325,5.14423708 L7.43643325,7.42884741 L5.18216626,7.42884741 C4.90038289,7.42884741 4.6185995,7.7144237 4.6185995,8 C4.6185995,8.2855763 4.95673955,8.57115259 5.18216626,8.57115259 L7.43643325,8.57115259 L7.43643325,10.8557629 C7.43643325,11.1413392 7.71821662,11.4269155 8,11.4269155 C8.28178338,11.4269155 8.56356675,11.1413392 8.56356675,10.8557629 L8.56356675,8.57115259 L10.8178337,8.57115259 C11.0996171,8.57115259 11.3814005,8.2855763 11.3814005,8 C11.3814005,7.7144237 11.0996171,7.42884741 10.8178337,7.42884741 L10.8178337,7.42884741 Z" id="形状" fill="#010101" fill-rule="nonzero"></path>
    </g>
</svg>