<?xml version="1.0" encoding="UTF-8"?>
<svg width="16px" height="16px" viewBox="0 0 16 16" version="1.1" xmlns="http://www.w3.org/2000/svg" xmlns:xlink="http://www.w3.org/1999/xlink">
    <!-- Generator: Sketch 55.2 (78181) - https://sketchapp.com -->
    <title>icon/restore</title>
    <desc>Created with Sketch.</desc>
    <g id="icon/restore" stroke="none" stroke-width="1" fill="none" fill-rule="evenodd">
        <path d="M12.5759745,13.5306285 L3.81225139,13.5306285 C1.63564041,13.5306285 -3.55271368e-15,11.9586317 -3.55271368e-15,10.0875099 C-3.55271368e-15,8.53460621 0.891010342,7.24900557 2.33571997,7.01988862 C2.36117741,5.23786794 4.06682578,4.0477327 5.63882259,4.50596659 C6.40254574,3.39220366 7.62450278,2.46937152 9.35560859,2.46937152 C11.9586317,2.46937152 13.9952267,4.51869531 13.982498,7.35719968 C15.2299125,7.87907717 16,9.03739061 16,10.3739061 C16,12.124105 14.4980111,13.5306285 12.5759745,13.5306285 Z M12.5759745,12.5059666 C13.9252188,12.5059666 14.9753381,11.557677 14.9753381,10.3739061 C14.9753381,9.22195704 14.2243437,8.37549722 13.0660302,8.12092283 C12.9896579,8.10182975 12.9578361,8.05727924 12.9642005,7.97454256 C12.9896579,7.67541766 13.008751,7.33174224 12.9960223,7.0389817 C12.8878282,5.14876691 11.4431185,3.49403341 9.35560859,3.49403341 C7.70723946,3.49403341 6.75258552,4.39777247 6.141607,5.49880668 C6.10342084,5.56881464 6.05887033,5.58790772 5.98249801,5.56245028 C4.67143994,5.13603819 3.26491647,5.71519491 3.26491647,7.67541766 C3.26491647,7.75815434 3.22673031,7.80270485 3.14399364,7.80270485 C1.78838504,7.80270485 1.02466189,8.81463803 1.02466189,10.0875099 C1.02466189,11.3858393 2.20206842,12.5059666 3.81225139,12.5059666 L12.5759745,12.5059666 Z M10.7984885,8.78281623 C10.7984885,10.2786719 9.61218904,11.4731106 8.13365155,11.4731106 C6.65929502,11.4731106 5.475179,10.2828804 5.475179,8.80190931 C5.475179,8.5354153 5.69940229,8.31368337 5.96976929,8.31368337 C6.24013629,8.31368337 6.46435959,8.5354153 6.46435959,8.80190931 C6.46435959,9.7335598 7.20917149,10.48393 8.13365155,10.48393 C9.06356982,10.48393 9.80930788,9.734491 9.80930788,8.80190931 C9.80930788,7.88293181 9.07492757,7.14359532 8.15420757,7.13273847 L8.55440201,7.52833467 C8.64387383,7.61780649 8.69188544,7.73261687 8.69188544,7.85998409 C8.69188544,8.11887207 8.48800493,8.32275259 8.22911695,8.32275259 C8.10975118,8.32275259 7.98204224,8.27166901 7.91019624,8.19163351 L6.79643332,7.07787058 C6.61736498,6.89880224 6.61736498,6.58091136 6.79562527,6.4026604 L7.88809843,5.28485395 C7.97751796,5.18730537 8.09985266,5.13150358 8.22911695,5.13150358 C8.48735436,5.13150358 8.6982498,5.34742035 8.6982498,5.6070008 C8.6982498,5.72721137 8.64446405,5.85495253 8.56186246,5.93753687 L8.33585312,6.1707211 C9.67302718,6.22272393 10.7984885,7.37825664 10.7984885,8.78281623 Z" id="形状" fill="#000000" fill-rule="nonzero"></path>
    </g>
</svg>