<?xml version="1.0" encoding="UTF-8"?>
<svg width="16px" height="16px" viewBox="0 0 16 16" version="1.1" xmlns="http://www.w3.org/2000/svg" xmlns:xlink="http://www.w3.org/1999/xlink">
    <!-- Generator: Sketch 55.2 (78181) - https://sketchapp.com -->
    <title>icon/选中</title>
    <desc>Created with Sketch.</desc>
    <g id="icon/选中" stroke="none" stroke-width="1" fill="none" fill-rule="evenodd">
        <path d="M8,16 C3.62352941,16 0,12.3764706 0,8 C0,3.63137255 3.61568627,0 7.99215686,0 C12.3607843,0 16,3.63137255 16,8 C16,12.3764706 12.3686275,16 8,16 Z M6.97218405,9.37919268 L4.91184136,7.31884999 C4.61894814,7.02595677 4.14407441,7.02595677 3.85118119,7.31884999 C3.55828797,7.6117432 3.55828797,8.08661694 3.85118119,8.37951016 L6.44185397,10.9701829 C6.73474719,11.2630762 7.20962092,11.2630762 7.50251414,10.9701829 L12.1488188,6.32387826 C12.441712,6.03098505 12.441712,5.55611131 12.1488188,5.26321809 C11.8559256,4.97032487 11.3810519,4.97032487 11.0881586,5.26321809 L6.97218405,9.37919268 Z" id="形状" fill="#FFFFFF" fill-rule="nonzero"></path>
    </g>
</svg>