<?xml version="1.0" encoding="UTF-8"?>
<svg width="16px" height="16px" viewBox="0 0 16 16" version="1.1" xmlns="http://www.w3.org/2000/svg" xmlns:xlink="http://www.w3.org/1999/xlink">
    <!-- Generator: Sketch 55.2 (78181) - https://sketchapp.com -->
    <title>icon/支出</title>
    <desc>Created with Sketch.</desc>
    <g id="icon/支出" stroke="none" stroke-width="1" fill="none" fill-rule="evenodd">
        <path d="M0,8 C0,12.418278 3.581722,16 8,16 C12.418278,16 16,12.418278 16,8 C16,3.581722 12.418278,0 8,0 C3.581722,0 0,3.581722 0,8 Z" id="路径" fill="#FF5555" fill-rule="nonzero"></path>
        <path d="M5.98651648,7.6453678 L4.93489435,7.6453678 C4.79230288,7.64506713 4.66546645,7.55068846 4.61863384,7.41003916 C4.57180123,7.26938986 4.61520204,7.11319185 4.72685168,7.02056696 L7.58240508,4.65207068 C7.82682445,4.44930977 8.1728408,4.44930977 8.41726018,4.65207068 L11.2731491,7.02056696 C11.3848947,7.11327204 11.4282635,7.26964804 11.3812557,7.41036949 C11.3342479,7.55109094 11.20715,7.64536456 11.0644354,7.6453678 L10.0131488,7.6453678 L10.0131488,10.7991578 C10.0131488,11.1862223 9.71268466,11.5 9.3420434,11.5 L6.65762186,11.5 C6.2869806,11.5 5.98651648,11.1862223 5.98651648,10.7991578 L5.98651648,7.6453678 Z" id="路径" fill="#FFFFFF" fill-rule="nonzero"></path>
    </g>
</svg>