<?xml version="1.0" encoding="UTF-8"?>
<svg width="16px" height="16px" viewBox="0 0 16 16" version="1.1" xmlns="http://www.w3.org/2000/svg" xmlns:xlink="http://www.w3.org/1999/xlink">
    <!-- Generator: Sketch 55.2 (78181) - https://sketchapp.com -->
    <title>icon/设置</title>
    <desc>Created with Sketch.</desc>
    <g id="icon/设置" stroke="none" stroke-width="1" fill="none" fill-rule="evenodd">
        <path d="M8,14.9202401 C7.80817052,14.9202401 7.63055062,14.8989257 7.43872114,14.8847161 L7.03374778,15.6662437 C6.95559503,15.8225492 6.79928952,15.9078067 6.60035524,15.8793875 C6.42273535,15.8438636 6.30195382,15.7159772 6.27353464,15.5241478 L6.15275311,14.6644675 C5.79751332,14.5721051 5.44937833,14.437114 5.10834813,14.2879133 L4.47602131,14.8634017 C4.3410302,14.9912881 4.1705151,15.0197073 3.9928952,14.9202401 C3.8365897,14.8349826 3.77264654,14.6644675 3.80817052,14.4797428 L3.98579041,13.6271673 C3.68738899,13.4211282 3.39609236,13.18667 3.13321492,12.9237925 L2.34458259,13.2577179 C2.1669627,13.3287659 1.9964476,13.2932419 1.86145648,13.1298316 C1.74067496,13.0019453 1.72646536,12.8172206 1.8330373,12.6609151 L2.28774423,11.9220163 C2.08170515,11.6236149 1.91119005,11.3038991 1.74777975,10.9628689 L0.873889876,11.0054977 C0.689165187,11.0126025 0.53285968,10.9131353 0.476021314,10.7355154 C0.419182948,10.5578955 0.468916519,10.3873804 0.618117229,10.2737037 L1.30017762,9.73373923 C1.20781528,9.39270903 1.12966252,9.02325965 1.10834813,8.64670548 L0.284191829,8.38382804 C0.0994671403,8.31988488 0,8.18489376 0,7.99306427 C0,7.80123479 0.0994671403,7.66624367 0.284191829,7.6094053 L1.10834813,7.34652786 C1.12966252,6.96286889 1.20781528,6.6076291 1.30017762,6.25949411 L0.618117229,5.71242484 C0.468916519,5.6058529 0.419182948,5.4424426 0.476021314,5.26482271 C0.53285968,5.08720282 0.689165187,4.98773568 0.873889876,4.99484047 L1.74777975,5.03036445 C1.91119005,4.68933425 2.08170515,4.36961845 2.29484902,4.07121702 L1.8259325,3.32521347 C1.73357016,3.18311756 1.74777975,2.99839287 1.86145648,2.87050655 C1.9964476,2.70709624 2.1669627,2.66446747 2.34458259,2.74262022 L3.13321492,3.06233603 C3.39609236,2.81366818 3.68738899,2.57210512 3.98579041,2.36606605 L3.80817052,1.52059536 C3.77264654,1.32876587 3.8365897,1.15825077 3.9928952,1.07299322 C4.1634103,0.980630879 4.3339254,0.994840471 4.47602131,1.13693639 L5.11545293,1.69821525 C5.44937833,1.54901454 5.79751332,1.42823301 6.15275311,1.32166107 L6.27353464,0.469085586 C6.30195382,0.284360897 6.42273535,0.149369778 6.60035524,0.120950595 C6.79928952,0.0925314122 6.95559503,0.170684165 7.03374778,0.326989672 L7.43872114,1.1085172 C7.63765542,1.09430761 7.80817052,1.08009802 8,1.08009802 C8.18472469,1.08009802 8.35523979,1.09430761 8.54706927,1.1085172 L8.95914742,0.326989672 C9.03730018,0.170684165 9.19360568,0.0925314122 9.38543517,0.120950595 C9.56305506,0.149369778 9.69094139,0.284360897 9.71225577,0.469085586 L9.8401421,1.32876587 C10.1882771,1.42823301 10.5364121,1.54901454 10.8774423,1.69821525 L11.5168739,1.13693639 C11.651865,0.994840471 11.8223801,0.980630879 12,1.07299322 C12.1563055,1.15825077 12.2202487,1.32876587 12.1847247,1.52059536 L12.0071048,2.36606605 C12.2984014,2.57210512 12.589698,2.81366818 12.8525755,3.06233603 L13.6483126,2.74262022 C13.8259325,2.66446747 13.9893428,2.70709624 14.1243339,2.87050655 C14.2451155,2.99839287 14.259325,3.18311756 14.1598579,3.33231827 L13.6980462,4.07121702 C13.9111901,4.36961845 14.0817052,4.68933425 14.2451155,5.03036445 L15.1119005,4.99484047 C15.2966252,4.98773568 15.4529307,5.08720282 15.5168739,5.26482271 C15.5737123,5.4424426 15.5168739,5.6058529 15.3676732,5.71242484 L14.6927176,6.25949411 C14.7850799,6.6076291 14.8561279,6.96286889 14.8845471,7.34652786 L15.7087034,7.6094053 C15.8863233,7.67334846 16,7.80833958 16,7.99306427 C16,8.18489376 15.8863233,8.31988488 15.7087034,8.38382804 L14.8845471,8.63960068 C14.8561279,9.02325965 14.7850799,9.39270903 14.6927176,9.73373923 L15.3676732,10.2737037 C15.5168739,10.3873804 15.5737123,10.5578955 15.5168739,10.7355154 C15.4529307,10.9131353 15.2966252,11.0126025 15.1119005,11.0054977 L14.2451155,10.9628689 C14.0817052,11.3038991 13.9111901,11.6236149 13.6980462,11.9220163 L14.1598579,12.6609151 C14.259325,12.8172206 14.2451155,13.0019453 14.1243339,13.1298316 C13.9893428,13.2932419 13.8259325,13.3287659 13.6483126,13.2577179 L12.8525755,12.9237925 C12.589698,13.18667 12.2984014,13.4211282 12.0071048,13.6271673 L12.1847247,14.4797428 C12.2202487,14.6644675 12.1563055,14.8349826 12,14.9202401 C11.8223801,15.0197073 11.651865,14.9912881 11.5168739,14.8634017 L10.8774423,14.2879133 C10.5364121,14.437114 10.1882771,14.5721051 9.8401421,14.6644675 L9.71225577,15.5241478 C9.69094139,15.7159772 9.56305506,15.8438636 9.38543517,15.8793875 C9.19360568,15.9078067 9.03730018,15.8225492 8.95914742,15.6662437 L8.54706927,14.8847161 C8.35523979,14.8989257 8.18472469,14.9202401 8,14.9202401 Z M9.78330373,7.54546214 L13.7477798,7.54546214 C13.5275311,4.51171436 11.0976909,2.16002697 8,2.16002697 C7.07637655,2.16002697 6.20959147,2.36606605 5.44937833,2.74262022 L7.48845471,6.22397013 C7.71580817,6.17423656 7.85790409,6.16002697 7.97868561,6.16002697 C8.79573712,6.16002697 9.44937833,6.65025788 9.78330373,7.54546214 Z M2.23090586,8.00016907 C2.23090586,9.96109269 3.14742451,11.6804533 4.58259325,12.7390678 L6.68561279,9.30034669 C6.29484902,8.88826853 6.12433393,8.47619038 6.12433393,8.02858825 C6.12433393,7.56677653 6.30195382,7.13338399 6.68561279,6.73551543 L4.63232682,3.23285113 C3.1616341,4.2843609 2.23090586,6.02503585 2.23090586,8.00016907 Z M7.12611012,8.02148345 C7.12611012,8.49750477 7.53818828,8.88826853 7.9928952,8.88826853 C8.47602131,8.88826853 8.87388988,8.49750477 8.87388988,8.02148345 C8.87388988,7.53835734 8.47602131,7.16180317 7.9928952,7.16180317 C7.53818828,7.16180317 7.12611012,7.53835734 7.12611012,8.02148345 Z M8,13.8403112 C11.0905861,13.8403112 13.5204263,11.4886238 13.7477798,8.46908559 L9.78330373,8.46908559 C9.45648313,9.38560424 8.80284192,9.89004473 7.97868561,9.89004473 C7.85790409,9.89004473 7.70870337,9.87583514 7.48845471,9.81899678 L5.39964476,13.2364035 C6.1740675,13.6200625 7.05506217,13.8403112 8,13.8403112 Z" id="settings" fill="#000000" fill-rule="nonzero"></path>
    </g>
</svg>