<?xml version="1.0" encoding="UTF-8"?>
<svg width="16px" height="16px" viewBox="0 0 16 16" version="1.1" xmlns="http://www.w3.org/2000/svg" xmlns:xlink="http://www.w3.org/1999/xlink">
    <!-- Generator: Sketch 55.2 (78181) - https://sketchapp.com -->
    <title>icon/切换</title>
    <desc>Created with Sketch.</desc>
    <g id="icon/切换" stroke="none" stroke-width="1" fill="none" fill-rule="evenodd">
        <path d="M0.502344103,6.34949129 C0.225798151,6.34917656 0.00167759657,6.12509722 0.00130961949,5.84855133 L0.00130961949,4.8464687 C0.001106155,4.71352203 0.0538266194,4.58596103 0.147832493,4.4919517 C0.241838366,4.39794237 0.36939743,4.34521721 0.502344103,4.34541817 L9.56739255,4.34541817 C9.70035517,4.34564853 9.82793989,4.29293889 9.92196917,4.19893035 C10.0159985,4.10492181 10.0687363,3.97734873 10.0685352,3.84438607 L10.0685352,1.13586037 C10.0685352,0.695220446 10.5985379,0.469334895 10.9161451,0.773544146 L15.8434614,5.48610611 C16.169933,5.79927191 15.9484889,6.34949129 15.4966994,6.34949129 L0.502344103,6.34949129 Z M15.4966072,9.65064175 C15.7740206,9.65064175 15.9976393,9.8765273 15.9999995,10.1514896 L15.9999995,11.1534616 C16.0002286,11.2864082 15.9475316,11.413979 15.853543,11.5080056 C15.7595544,11.6020322 15.632005,11.6547808 15.4990583,11.6546043 L6.43165093,11.6546043 C6.29871594,11.6543739 6.17115747,11.7070714 6.077146,11.8010586 C5.98313453,11.8950459 5.93040428,12.0225908 5.93060039,12.1555258 L5.93060039,14.8640515 C5.93060039,15.3047099 5.40050559,15.5306876 5.08289838,15.2264783 L0.155692621,10.5139164 C-0.170889565,10.2008427 0.0505545718,9.65064175 0.502344103,9.65064175 L15.4966072,9.65064175 Z" id="形状" fill="#FFFFFF" fill-rule="nonzero"></path>
    </g>
</svg>